<svg xmlns="http://www.w3.org/2000/svg" width="30" height="30" viewBox="0 0 30 30">
    <g fill="none" fill-rule="evenodd">
        <rect width="30" height="30" fill="#4C7ECA" rx="15"/>
        <path fill="#FFF" fill-rule="nonzero" d="M15 7c-.146.012-.34.069-.45.16l-5.815 4.8c-.304.21-.303.641-.055.907.249.265.69.286.953.053l4.683-3.87v13.31c0 .353.306.64.684.64.378 0 .684-.287.684-.64V9.05l4.683 3.87c.262.254.711.183.96-.083.248-.266.23-.668-.062-.877l-5.816-4.8a.7.7 0 0 0-.45-.16z"/>
    </g>
</svg>
