<svg xmlns="http://www.w3.org/2000/svg" width="32" height="28" viewBox="0 0 32 28">
    <path fill="#B2C7E8" fill-rule="nonzero" d="M9.622 18.789v.197a.749.749 0 0 1-.51-.202l-6.93-6.478c-.08-.074-.142-.165-.14-.2C.721 10.796 0 9.18 0 7.52 0 3.361 4.452 0 9.9 0c5.45 0 9.902 3.36 9.902 7.521 0 .42-.336.76-.752.76a.756.756 0 0 1-.752-.76c0-3.292-3.756-6-8.397-6s-8.397 2.708-8.397 6c0 1.35.622 2.629 1.808 3.703.082.075.146.166.141.199l5.42 5.065.004-2.046a.75.75 0 0 1-.008-.306.747.747 0 0 1 .747-.626l.14.006c.265.014.525.007.933-.021a.754.754 0 0 1 .794.71.758.758 0 0 1-.701.808 13.4 13.4 0 0 1-.406.02l-.002 3.193a.76.76 0 0 1-.752.76v-.197zm12.756 9.014V28a.76.76 0 0 1-.752-.76l-.002-3.192c-5.24-.188-9.426-3.481-9.426-7.513 0-4.16 4.452-7.521 9.901-7.521 5.45 0 9.901 3.36 9.901 7.521 0 1.66-.722 3.276-1.998 4.52a.774.774 0 0 1-.184.265l-6.93 6.479a.747.747 0 0 1-.51.201v-.197zm.75-2.3l5.372-5a.758.758 0 0 1 .189-.265c1.185-1.074 1.807-2.353 1.807-3.703 0-3.292-3.756-6-8.397-6-4.64 0-8.397 2.708-8.397 6s3.756 6 8.397 6c.043 0 .086-.001.147-.005l.143-.006a.763.763 0 0 1 .74.978v2zM9.939 9.873v-.198c.558 0 1.016.465 1.016 1.03 0 .564-.457 1.028-1.017 1.028-.56 0-1.016-.464-1.016-1.029 0-.564.457-1.029 1.016-1.029v.197zm.049-5.844v-.197c1.572 0 2.733.804 2.733 2.226 0 .708-.35 1.227-1.009 1.745-.126.099-.532.394-.525.388-.165.124-.26.21-.307.28a1.042 1.042 0 0 0-.103.212l-.034.089c-.168.45-.358.638-.845.638-.507 0-.837-.401-.837-.876 0-.588.276-.943.95-1.473l.167-.131c.46-.365.631-.583.631-.872 0-.433-.266-.675-.761-.675-.45 0-.618.143-.81.556l-.044.094c-.224.489-.426.69-.893.69-.482 0-.847-.32-.847-.817 0-1.109 1.209-2.074 2.534-2.074v.197zm13.498 16.45v.197h-2.218a.756.756 0 0 1-.752-.76c0-.42.336-.76.752-.76h.357v-2.423h-.357a.756.756 0 0 1-.752-.761c0-.42.336-.76.752-.76h1.11c.416 0 .751.34.751.76v3.183h.357c.417 0 .752.341.752.76 0 .42-.335.761-.752.761v-.197zM22.931 14h.197c0 .575-.46 1.042-1.029 1.042S21.07 14.575 21.07 14c0-.574.46-1.042 1.03-1.042.568 0 1.028.468 1.028 1.042h-.197z"/>
</svg>
