<!-- Generated by IcoMoon.io -->
<svg version="1.1" xmlns="http://www.w3.org/2000/svg" width="32" height="32" viewBox="0 0 32 32">
<path fill="#b2c7e8" d="M9.622 20.789v0.197c-0.197-0-0.377-0.077-0.51-0.202l0 0-6.93-6.478c-0.080-0.074-0.142-0.165-0.14-0.2-1.321-1.31-2.042-2.926-2.042-4.586 0-4.159 4.452-7.52 9.9-7.52 5.45 0 9.902 3.36 9.902 7.521 0 0.42-0.336 0.76-0.752 0.76-0.416-0.002-0.752-0.34-0.752-0.756 0-0.001 0-0.003 0-0.004v0c0-3.292-3.756-6-8.397-6s-8.397 2.708-8.397 6c0 1.35 0.622 2.629 1.808 3.703 0.082 0.075 0.146 0.166 0.141 0.199l5.42 5.065 0.004-2.046c-0.013-0.052-0.020-0.111-0.020-0.172 0-0.047 0.004-0.094 0.013-0.138l-0.001 0.005c0.060-0.357 0.367-0.626 0.737-0.626 0.003 0 0.007 0 0.010 0h-0.001l0.14 0.006c0.265 0.014 0.525 0.007 0.933-0.021 0.012-0.001 0.027-0.001 0.041-0.001 0.401 0 0.729 0.314 0.753 0.709l0 0.002c0.001 0.016 0.002 0.034 0.002 0.052 0 0.399-0.309 0.726-0.7 0.756l-0.003 0c-0.1 0.007-0.241 0.014-0.383 0.019l-0.023 0.001-0.002 3.193c0 0 0 0 0 0 0 0.417-0.336 0.755-0.752 0.76h-0v-0.197zM22.378 29.803v0.197c-0.416-0.005-0.752-0.343-0.752-0.76 0-0 0-0 0-0v0l-0.002-3.192c-5.24-0.188-9.426-3.481-9.426-7.513 0-4.16 4.452-7.521 9.901-7.521s9.901 3.36 9.901 7.521c0 1.66-0.722 3.276-1.998 4.52-0.044 0.104-0.106 0.192-0.184 0.265l-0 0-6.93 6.479c-0.133 0.125-0.313 0.201-0.51 0.201-0 0-0 0-0 0v0-0.197zM23.128 27.503l5.372-5c0.045-0.104 0.109-0.193 0.188-0.264l0.001-0.001c1.185-1.074 1.807-2.353 1.807-3.703 0-3.292-3.756-6-8.397-6-4.64 0-8.397 2.708-8.397 6s3.756 6 8.397 6c0.043 0 0.086-0.001 0.147-0.005l0.143-0.006c0.002-0 0.005-0 0.008-0 0.421 0 0.763 0.342 0.763 0.763 0 0.077-0.011 0.151-0.032 0.22l0.001-0.005v2zM9.939 11.873v-0.198c0.558 0 1.016 0.465 1.016 1.030s-0.457 1.028-1.017 1.028-1.016-0.464-1.016-1.029c0-0.564 0.457-1.029 1.016-1.029v0.197zM9.988 6.029v-0.197c1.572 0 2.733 0.804 2.733 2.226 0 0.708-0.35 1.227-1.009 1.745-0.126 0.099-0.532 0.394-0.525 0.388-0.165 0.124-0.26 0.21-0.307 0.28-0.039 0.061-0.074 0.131-0.101 0.205l-0.002 0.007-0.034 0.089c-0.168 0.45-0.358 0.638-0.845 0.638-0.507 0-0.837-0.401-0.837-0.876 0-0.588 0.276-0.943 0.95-1.473l0.167-0.131c0.46-0.365 0.631-0.583 0.631-0.872 0-0.433-0.266-0.675-0.761-0.675-0.45 0-0.618 0.143-0.81 0.556l-0.044 0.094c-0.224 0.489-0.426 0.69-0.893 0.69-0.482 0-0.847-0.32-0.847-0.817 0-1.109 1.209-2.074 2.534-2.074v0.197zM23.486 22.479v0.197h-2.218c-0.416-0.002-0.752-0.34-0.752-0.756 0-0.001 0-0.003 0-0.004v0c0-0.42 0.336-0.76 0.752-0.76h0.357v-2.423h-0.357c-0.416-0.002-0.752-0.34-0.752-0.756 0-0.002 0-0.004 0-0.005v0c0-0.42 0.336-0.76 0.752-0.76h1.11c0.416 0 0.751 0.34 0.751 0.76v3.183h0.357c0.417 0 0.752 0.341 0.752 0.76 0 0.42-0.335 0.761-0.752 0.761v-0.197zM22.931 16h0.197c0 0.575-0.46 1.042-1.029 1.042s-1.029-0.467-1.029-1.042c0-0.574 0.46-1.042 1.030-1.042 0.568 0 1.028 0.468 1.028 1.042h-0.197z"></path>
</svg>
