<!-- Generated by IcoMoon.io -->
<svg version="1.1" xmlns="http://www.w3.org/2000/svg" width="32" height="32" viewBox="0 0 32 32">
<path fill="#b2c7e8" d="M5.949 22.91c0 2.9 4.307 5.090 10.051 5.090s10.051-2.189 10.051-5.090v-7.84l4.308-1.985v11.25c0 0.457 0.359 0.814 0.82 0.814 0.462 0 0.821-0.357 0.821-0.815v-12.724c-0.088-0.239-0.273-0.424-0.507-0.508l-0.006-0.002-15.127-7.023c-0.097-0.048-0.212-0.076-0.334-0.076s-0.236 0.028-0.338 0.078l0.005-0.002-15.231 6.973c-0.308 0.153-0.462 0.407-0.462 0.712s0.205 0.611 0.462 0.713l5.435 2.494v7.94h0.052zM16 5.705l13.23 6.108-13.23 6.109-13.23-6.109 13.23-6.108zM7.59 22.91v-7.126l8.051 3.766c0.103 0.051 0.205 0.051 0.359 0.051s0.256 0 0.359-0.050l8.103-3.716v7.126c0 1.629-3.488 3.461-8.41 3.461-4.924 0-8.462-1.883-8.462-3.512z"></path>
</svg>
