<svg xmlns="http://www.w3.org/2000/svg" width="32" height="24" viewBox="0 0 32 24">
    <path fill="#B2C7E8" fill-rule="nonzero" d="M5.949 18.91C5.949 21.81 10.256 24 16 24s10.051-2.189 10.051-5.09V11.07l4.308-1.985v11.25c0 .457.359.814.82.814.462 0 .821-.357.821-.815V7.813v-.101-.051-.051a.843.843 0 0 0-.513-.51L16.36.077a.766.766 0 0 0-.667 0L.462 7.05C.154 7.203 0 7.457 0 7.762c0 .306.205.611.462.713l5.435 2.494v7.94h.052zM16 1.705l13.23 6.108L16 13.922 2.77 7.813 16 1.705zM7.59 18.91v-7.126l8.051 3.766c.103.051.205.051.359.051s.256 0 .359-.05l8.103-3.716v7.126c0 1.629-3.488 3.461-8.41 3.461-4.924 0-8.462-1.883-8.462-3.512z"/>
</svg>
