<!-- Generated by IcoMoon.io -->
<svg version="1.1" xmlns="http://www.w3.org/2000/svg" width="32" height="32" viewBox="0 0 32 32">
<path fill="#b2c7e8" d="M21.455 9.857l9.155 1.257c0.616 0.085 1.118 0.51 1.31 1.108s0.032 1.24-0.417 1.676l-6.678 6.472 1.65 9.214c0.085 0.475-0.040 0.959-0.344 1.327-0.294 0.36-0.738 0.588-1.235 0.589h-0c-0.262 0-0.525-0.068-0.76-0.196l-8.136-4.437-8.136 4.437c-0.661 0.36-1.515 0.19-1.995-0.393-0.231-0.279-0.371-0.641-0.371-1.035 0-0.104 0.010-0.205 0.028-0.303l-0.002 0.010 1.65-9.214-6.678-6.472c-0.307-0.296-0.497-0.712-0.497-1.171 0-0.18 0.029-0.354 0.083-0.516l-0.003 0.011c0.187-0.587 0.689-1.021 1.302-1.107l0.008-0.001 9.155-1.258 4.010-8.436c0.268-0.567 0.822-0.92 1.445-0.92 0.622 0 1.176 0.353 1.445 0.92l4.010 8.437zM24.862 29.827l-1.643-9.176c-0.017-0.088-0.026-0.189-0.026-0.292 0-0.46 0.19-0.875 0.496-1.172l0-0 6.651-6.446-9.118-1.252c-0.547-0.078-0.999-0.422-1.226-0.895l-0.004-0.010-3.992-8.4-3.992 8.4c-0.231 0.483-0.683 0.827-1.221 0.904l-0.009 0.001-9.118 1.251 6.651 6.446c0.39 0.378 0.566 0.925 0.47 1.464l-1.643 9.175 8.101-4.417c0.22-0.122 0.482-0.194 0.761-0.194s0.541 0.072 0.769 0.198l-0.008-0.004 8.1 4.417z"></path>
</svg>
