<svg xmlns="http://www.w3.org/2000/svg" width="32" height="31" viewBox="0 0 32 31">
    <path fill="#B2C7E8" fill-rule="nonzero" d="M21.455 9.357l9.155 1.257c.616.085 1.118.51 1.31 1.108.192.598.032 1.24-.417 1.676l-6.678 6.472 1.65 9.214c.085.475-.04.959-.344 1.327a1.598 1.598 0 0 1-1.235.589c-.262 0-.525-.068-.76-.196L16 26.367l-8.136 4.437c-.661.36-1.515.19-1.995-.393a1.631 1.631 0 0 1-.344-1.328l1.65-9.214-6.678-6.472a1.628 1.628 0 0 1-.417-1.675 1.599 1.599 0 0 1 1.31-1.108l9.155-1.258L14.555.92C14.823.353 15.377 0 16 0c.622 0 1.176.353 1.445.92l4.01 8.437zm3.407 19.97l-1.643-9.176a1.633 1.633 0 0 1 .47-1.464l6.651-6.446-9.118-1.252a1.602 1.602 0 0 1-1.23-.905L16 1.684l-3.992 8.4a1.601 1.601 0 0 1-1.23.905L1.66 12.24l6.651 6.446c.39.378.566.925.47 1.464l-1.643 9.175 8.101-4.417a1.593 1.593 0 0 1 1.522 0l8.1 4.417z"/>
</svg>
