<svg xmlns="http://www.w3.org/2000/svg" width="30" height="30" viewBox="0 0 30 30">
    <defs>
        <radialGradient id="a" cx="29.301%" cy="107.742%" r="132.455%" fx="29.301%" fy="107.742%">
            <stop offset="10%" stop-color="#FFD879"/>
            <stop offset="15%" stop-color="#FCCB76"/>
            <stop offset="26%" stop-color="#F5AA6C"/>
            <stop offset="40%" stop-color="#E9755E"/>
            <stop offset="45%" stop-color="#E45F58"/>
            <stop offset="68%" stop-color="#D22A9C"/>
            <stop offset="100%" stop-color="#6968DF"/>
        </radialGradient>
    </defs>
    <g fill="none" fill-rule="evenodd">
        <path fill="url(#a)" fill-rule="nonzero" d="M30 23.839A6.161 6.161 0 0 1 23.841 30H6.165A6.157 6.157 0 0 1 0 23.839V6.164A6.164 6.164 0 0 1 6.165 0h17.67A6.16 6.16 0 0 1 30 6.164V23.84z"/>
        <path fill="#FFF" d="M19.308 25h-8.616A5.699 5.699 0 0 1 5 19.308v-8.616A5.699 5.699 0 0 1 10.692 5h8.616A5.699 5.699 0 0 1 25 10.692v8.616A5.699 5.699 0 0 1 19.308 25zM10.692 6.714a3.982 3.982 0 0 0-3.978 3.978v8.616a3.983 3.983 0 0 0 3.978 3.978h8.616a3.983 3.983 0 0 0 3.978-3.978v-8.616a3.982 3.982 0 0 0-3.978-3.978h-8.616zM15 20.121A5.127 5.127 0 0 1 9.879 15a5.127 5.127 0 0 1 5.12-5.121A5.127 5.127 0 0 1 20.122 15 5.127 5.127 0 0 1 15 20.12zm0-8.528A3.41 3.41 0 0 0 11.593 15 3.41 3.41 0 0 0 15 18.407 3.41 3.41 0 0 0 18.407 15 3.41 3.41 0 0 0 15 11.593zm6.571-2.007a1.23 1.23 0 1 1-2.461 0 1.23 1.23 0 0 1 2.461 0z"/>
    </g>
</svg>
