<svg xmlns="http://www.w3.org/2000/svg" width="30" height="30" viewBox="0 0 30 30">
    <g fill="none" fill-rule="evenodd">
        <path fill="#0047B3" d="M6.605 0h16.79C27.024 0 30 2.976 30 6.601v16.783C30 27.024 27.023 30 23.396 30H6.605C2.963 30 0 27.024 0 23.384V6.6C0 2.976 2.963 0 6.605 0"/>
        <path fill="#FFF" fill-rule="nonzero" d="M24.33 20.83l-2.896-2.902c-.577-.576-1.532-.558-2.129.04l-1.459 1.462-.287-.16c-.922-.512-2.183-1.214-3.51-2.544-1.33-1.334-2.03-2.6-2.542-3.524-.054-.097-.106-.192-.157-.281l.979-.98.481-.483c.598-.6.614-1.557.039-2.134L9.953 6.421c-.575-.576-1.53-.559-2.128.04l-.816.823.022.022c-.274.35-.502.754-.673 1.189-.157.414-.254.81-.299 1.206-.382 3.177 1.066 6.08 4.997 10.02 5.434 5.446 9.813 5.035 10.002 5.015.412-.05.806-.148 1.207-.304a4.7 4.7 0 0 0 1.182-.671l.017.016.827-.812c.597-.599.614-1.556.039-2.135z"/>
    </g>
</svg>
