<!-- Generated by IcoMoon.io -->
<svg version="1.1" xmlns="http://www.w3.org/2000/svg" width="32" height="32" viewBox="0 0 32 32">
<path fill="#b2c7e8" d="M32 15.568c0 0.314-0.17 0.603-0.442 0.75-0.24 0.137-0.618 0.33-1.002 0.515l-0.151 0.065v12.145c0 1.080-0.86 1.958-1.918 1.958h-24.974c-1.058 0-1.918-0.879-1.918-1.958v-11.962c-0.542-0.231-0.913-0.405-1.278-0.588l0.15 0.068c-0.279-0.143-0.467-0.429-0.467-0.758 0-0.001 0-0.003 0-0.004v0l0.018-7.778c0-1.077 0.86-1.955 1.92-1.955h9.377v-2.4c0-1.47 1.171-2.666 2.612-2.666h4.147c1.44 0 2.612 1.196 2.612 2.666v2.4h9.378c1.059 0 1.918 0.878 1.918 1.957l0.018 7.545zM19.025 3.667c0-0.527-0.437-0.973-0.95-0.973h-4.148c-0.526 0.007-0.95 0.436-0.95 0.963 0 0.004 0 0.007 0 0.011v-0.001 2.4h6.048v-2.4zM3.255 29.043c0 0.143 0.12 0.265 0.258 0.265h24.975c0.142-0.007 0.254-0.122 0.257-0.265v-11.426c-3.086 1.218-6.575 1.956-10.417 2.202v0.955c0 0.805-0.642 1.462-1.433 1.462h-1.79c-0.79 0-1.432-0.657-1.432-1.462v-0.943c-3.79-0.223-7.28-0.92-10.417-2.080v11.292zM16.667 20.543v-2.28h-1.333v2.28h1.333zM30.339 15.053l-0.017-7.028c0-0 0-0 0-0 0-0.144-0.115-0.261-0.258-0.266h-28.126c-0.143 0.005-0.258 0.122-0.258 0.266v0l-0.017 7.24c3.465 1.631 7.5 2.595 12.010 2.87v-0.1c0-0.807 0.642-1.464 1.433-1.464h1.79c0.79 0 1.432 0.657 1.432 1.463v0.084c4.594-0.307 8.63-1.335 12.010-3.064z"></path>
</svg>
