<svg xmlns="http://www.w3.org/2000/svg" width="32" height="30" viewBox="0 0 32 30">
    <path fill="#B2C7E8" fill-rule="nonzero" d="M32 14.567c0 .314-.17.603-.442.75a25.18 25.18 0 0 1-1.153.58v12.145c0 1.08-.86 1.958-1.918 1.958H3.513c-1.058 0-1.918-.879-1.918-1.958V16.08a25.98 25.98 0 0 1-1.128-.52.849.849 0 0 1-.467-.762L.018 7.02c0-1.077.86-1.955 1.92-1.955h9.377v-2.4c0-1.47 1.171-2.666 2.612-2.666h4.147c1.44 0 2.612 1.196 2.612 2.666v2.4h9.378c1.059 0 1.918.878 1.918 1.957L32 14.567zM19.025 2.666c0-.527-.437-.973-.95-.973h-4.148a.963.963 0 0 0-.95.973v2.4h6.048v-2.4zM3.255 28.042c0 .143.12.265.258.265h24.975a.27.27 0 0 0 .257-.265V16.616c-3.086 1.218-6.575 1.956-10.417 2.202v.955c0 .805-.642 1.462-1.433 1.462h-1.79c-.79 0-1.432-.657-1.432-1.462v-.943c-3.79-.223-7.28-.92-10.417-2.08v11.292zm13.412-8.5v-2.28h-1.333v2.28h1.333zm13.672-5.49l-.017-7.028a.266.266 0 0 0-.258-.266H1.938a.267.267 0 0 0-.258.266l-.017 7.24c3.465 1.631 7.5 2.595 12.01 2.87v-.1c0-.807.642-1.464 1.433-1.464h1.79c.79 0 1.432.657 1.432 1.463v.084c4.594-.307 8.63-1.335 12.01-3.064z"/>
</svg>
