<svg xmlns="http://www.w3.org/2000/svg" xmlns:xlink="http://www.w3.org/1999/xlink" width="28" height="205" viewBox="0 0 28 205">
    <defs>
        <path id="a" d="M0 0h28v205H0z"/>
    </defs>
    <g fill="none" fill-rule="evenodd">
        <mask id="b" fill="#fff">
            <use xlink:href="#a"/>
        </mask>
        <path fill="#E5ECF7" d="M-405.922-214.81l2.02-2.02L324.97 512.04l-2.02 2.02-728.872-728.872zm0-20.007l2.02-2.02L324.97 492.035l-2.02 2.02-728.872-728.872zm0-20.958l2.02-2.02L324.97 471.077l-2.02 2.02-728.872-728.872zm0-20.959l2.02-2.02L324.97 450.118l-2.02 2.02-728.872-728.872zm0-20.958l2.02-2.02L324.97 429.16l-2.02 2.02-728.872-728.872zm0-20.006l2.02-2.02L324.97 409.154l-2.02 2.02-728.872-728.872zm0-20.959l2.02-2.02L324.97 388.195l-2.02 2.02-728.872-728.872zm0-20.958l2.02-2.02L324.97 367.236l-2.02 2.02-728.872-728.872zm0-20.959l2.02-2.02L324.97 346.278l-2.02 2.02-728.872-728.872zm0-20.958l2.02-2.02L324.97 325.318l-2.02 2.02-728.872-728.871zm0-20.96l2.02-2.02L324.97 304.362l-2.02 2.02-728.872-728.872zm0-20.958l2.02-2.02L324.97 283.402l-2.02 2.02-728.872-728.872z" mask="url(#b)"/>
    </g>
</svg>
