<svg xmlns="http://www.w3.org/2000/svg" width="117" height="30" viewBox="0 0 117 30">
    <g fill="#0047B3" fill-rule="evenodd">
        <path d="M44.181 12.132a.604.604 0 0 1-.176-.441V3.62a.599.599 0 0 1 .61-.62c.18 0 .327.058.44.173a.61.61 0 0 1 .171.447v8.07a.615.615 0 0 1-.17.442.58.58 0 0 1-.44.178.586.586 0 0 1-.435-.178zm9.79-.382a.547.547 0 0 1-.158.4.574.574 0 0 1-.429.16.592.592 0 0 1-.528-.298l-2.02-3.29h-1.714v2.969a.615.615 0 0 1-.17.44.58.58 0 0 1-.44.18.604.604 0 0 1-.61-.62L47.9 3.62a.599.599 0 0 1 .61-.62h2.114c.58 0 1.098.123 1.556.37.458.246.814.592 1.068 1.037.255.445.382.953.382 1.526a2.71 2.71 0 0 1-.423 1.502 2.654 2.654 0 0 1-1.15.99l1.796 2.932a.74.74 0 0 1 .117.393zm-3.346-4.172c.532 0 .97-.153 1.315-.46.345-.305.517-.7.517-1.185 0-.525-.172-.954-.517-1.288-.344-.334-.783-.5-1.315-.5h-1.503v3.433h1.503zm11.51-4.411a.592.592 0 0 1 .147.405.74.74 0 0 1-.117.394l-3.159 4.947v2.778a.604.604 0 0 1-.61.62.572.572 0 0 1-.423-.18.604.604 0 0 1-.176-.44V8.913l-3.135-4.947a.717.717 0 0 1-.13-.382c0-.167.061-.306.183-.417A.613.613 0 0 1 55.143 3c.125 0 .227.028.305.083a.972.972 0 0 1 .235.263l2.748 4.422 2.795-4.47a.602.602 0 0 1 .54-.298c.148 0 .272.056.37.167zm1.877 8.97a.61.61 0 0 1-.17-.446V3.62a.61.61 0 0 1 .17-.447A.577.577 0 0 1 64.44 3a.682.682 0 0 1 .47.227l5.12 6.914V3.62a.599.599 0 0 1 .61-.62c.172 0 .315.058.429.173a.61.61 0 0 1 .17.447v8.07a.61.61 0 0 1-.17.448.577.577 0 0 1-.429.172.713.713 0 0 1-.264-.053.425.425 0 0 1-.205-.161l-5.12-6.914v6.509a.615.615 0 0 1-.17.44.58.58 0 0 1-.44.18.577.577 0 0 1-.43-.173zm16.818-.435a.59.59 0 0 1-.176.43.611.611 0 0 1-.998-.203l-.658-1.669h-4.215l-.67 1.669a.657.657 0 0 1-.234.28.583.583 0 0 1-.33.101.558.558 0 0 1-.428-.184.621.621 0 0 1-.17-.435c0-.08.02-.171.059-.275l3.3-7.999c.117-.278.308-.417.575-.417.281 0 .473.14.575.417l3.311 8.023c.04.104.059.19.059.262zm-5.636-2.467h3.393L76.908 4.99l-1.714 4.244zm-30.35 17.24c-.622-.35-1.05-.806-1.285-1.37a.657.657 0 0 1-.059-.239c0-.12.043-.224.13-.316a.658.658 0 0 1 .469-.197c.125 0 .244.038.358.114a.68.68 0 0 1 .252.304c.141.31.42.572.834.787.415.214.873.321 1.374.321.587 0 1.084-.137 1.491-.41.407-.275.61-.65.61-1.127 0-.453-.171-.84-.516-1.163-.344-.322-.869-.518-1.573-.59-.971-.095-1.734-.383-2.29-.864-.556-.48-.834-1.083-.834-1.806 0-.509.143-.948.429-1.317.286-.37.677-.652 1.174-.847a4.555 4.555 0 0 1 1.673-.292c.674 0 1.241.14 1.703.417.462.278.853.676 1.174 1.192.094.151.141.294.141.43a.506.506 0 0 1-.235.429.55.55 0 0 1-.305.083.64.64 0 0 1-.564-.334 2.25 2.25 0 0 0-.792-.816c-.317-.187-.718-.28-1.204-.28-.595 0-1.076.117-1.444.351-.368.235-.552.575-.552 1.02 0 .413.164.759.493 1.037.329.278.916.46 1.762.548.939.095 1.667.384 2.184.864.516.481.775 1.115.775 1.902 0 .572-.153 1.063-.458 1.472-.306.41-.71.715-1.216.918a4.325 4.325 0 0 1-1.626.304c-.76 0-1.45-.175-2.073-.525zm16.572-8.726c.117.12.176.266.176.441v8.07c0 .176-.06.323-.182.442a.592.592 0 0 1-.428.179.604.604 0 0 1-.61-.62l-.001-5.925-2.842 5.877c-.133.207-.309.31-.528.31-.258 0-.446-.123-.564-.37l-2.806-5.71v5.818a.604.604 0 0 1-.61.62.604.604 0 0 1-.61-.62l-.001-8.07a.604.604 0 0 1 .61-.62c.235 0 .415.11.54.333l3.488 7.093 3.393-7.093c.126-.222.306-.334.54-.334.173 0 .318.06.435.18zm4.665 8.643a4.223 4.223 0 0 1-1.65-1.699c-.391-.727-.587-1.551-.587-2.473 0-.922.196-1.745.587-2.468a4.233 4.233 0 0 1 1.65-1.693c.708-.405 1.517-.608 2.425-.608.9 0 1.704.203 2.413.608.708.405 1.26.97 1.655 1.693.396.723.593 1.546.593 2.468 0 .922-.197 1.746-.593 2.473a4.274 4.274 0 0 1-1.65 1.699c-.704.405-1.51.608-2.418.608-.908 0-1.717-.203-2.425-.608zm4.221-.995a3.363 3.363 0 0 0 1.245-1.318 3.88 3.88 0 0 0 .446-1.86 3.88 3.88 0 0 0-.446-1.86 3.333 3.333 0 0 0-1.239-1.31c-.528-.318-1.129-.477-1.802-.477s-1.274.159-1.803.477a3.333 3.333 0 0 0-1.238 1.31 3.88 3.88 0 0 0-.447 1.86c0 .684.15 1.304.447 1.86.297.557.712.996 1.244 1.318a3.404 3.404 0 0 0 1.797.482c.665 0 1.264-.16 1.796-.482zm5.276 1.305a.615.615 0 0 1-.17-.441v-8.07c0-.176.058-.323.176-.442a.572.572 0 0 1 .422-.179c.173 0 .318.06.435.18.117.118.176.265.176.44v7.451h4.25a.604.604 0 0 1 .61.62.604.604 0 0 1-.61.62h-4.86a.567.567 0 0 1-.43-.179zm14.61-.43a.59.59 0 0 1-.176.43.611.611 0 0 1-.998-.203l-.657-1.669H84.14l-.67 1.67a.657.657 0 0 1-.234.28.583.583 0 0 1-.329.1.558.558 0 0 1-.428-.184.621.621 0 0 1-.17-.435c0-.08.019-.171.058-.274l3.3-8c.117-.278.309-.417.575-.417.282 0 .474.14.575.418l3.312 8.023c.039.103.059.19.059.262zm-5.636-2.467h3.394l-1.68-4.244-1.714 4.244zm7.472 2.903a.61.61 0 0 1-.17-.447v-8.07a.61.61 0 0 1 .17-.448.577.577 0 0 1 .428-.173.682.682 0 0 1 .47.227l5.12 6.914v-6.52a.599.599 0 0 1 .61-.62c.172 0 .315.057.429.172a.61.61 0 0 1 .17.447v8.07a.61.61 0 0 1-.17.448.577.577 0 0 1-.429.173.713.713 0 0 1-.264-.054.425.425 0 0 1-.206-.16l-5.12-6.915v6.509a.615.615 0 0 1-.17.441.58.58 0 0 1-.44.179.577.577 0 0 1-.428-.173zm10.084-.006a.594.594 0 0 1-.182-.441v-8.07c0-.176.06-.323.182-.442a.592.592 0 0 1 .428-.179c.172 0 .317.06.435.18.117.118.176.265.176.44v3.577l3.886-3.946a.968.968 0 0 1 .253-.197.575.575 0 0 1 .252-.054c.165 0 .292.05.382.15.09.099.135.22.135.363a.739.739 0 0 1-.223.536l-2.994 3.052 3.053 4.22a.647.647 0 0 1 .117.382c0 .159-.05.3-.153.423a.481.481 0 0 1-.387.185.572.572 0 0 1-.505-.262l-2.97-4.09-.846.859v2.873a.604.604 0 0 1-.61.62.592.592 0 0 1-.43-.179zm14.892-.43a.59.59 0 0 1-.176.43.611.611 0 0 1-.998-.203l-.658-1.669h-4.215l-.67 1.67a.657.657 0 0 1-.234.28.583.583 0 0 1-.33.1.558.558 0 0 1-.428-.184.621.621 0 0 1-.17-.435c0-.08.02-.171.059-.274l3.3-8c.117-.278.308-.417.575-.417.281 0 .473.14.575.418l3.311 8.023c.04.103.059.19.059.262zm-5.636-2.467h3.393l-1.679-4.244-1.714 4.244zM1.5 0h27A1.5 1.5 0 0 1 30 1.5v27a1.5 1.5 0 0 1-1.5 1.5h-27A1.5 1.5 0 0 1 0 28.5v-27A1.5 1.5 0 0 1 1.5 0zm8.417 20.076a.43.43 0 0 0 .322.141.424.424 0 0 0 .328-.14.482.482 0 0 0 .129-.338v-9.478a.477.477 0 0 0-.13-.344.434.434 0 0 0-.327-.134.439.439 0 0 0-.322.134.465.465 0 0 0-.134.344v9.478c0 .131.044.244.134.337zm4.59-.386c.654.352 1.404.527 2.25.527a4.35 4.35 0 0 0 1.764-.345c.525-.23.94-.567 1.242-1.01.303-.442.454-.968.454-1.576 0-.825-.271-1.49-.815-1.993-.543-.504-1.367-.834-2.471-.99-1.683-.217-2.525-.834-2.525-1.85 0-.547.21-.968.628-1.263.419-.296.989-.443 1.71-.443 1.006.008 1.759.395 2.258 1.159a.57.57 0 0 0 .207.202.548.548 0 0 0 .274.072c.089 0 .169-.018.24-.052.16-.096.24-.226.24-.391a.56.56 0 0 0-.093-.313 3.463 3.463 0 0 0-1.256-1.185c-.534-.304-1.153-.456-1.857-.456-.65 0-1.23.106-1.743.319-.512.213-.913.517-1.202.912-.29.395-.435.853-.435 1.374 0 .738.297 1.361.889 1.87.592.508 1.405.822 2.438.944.828.104 1.45.343 1.864.716.414.374.62.834.62 1.381 0 .617-.222 1.097-.667 1.44-.446.343-1.033.514-1.764.514-.632 0-1.186-.119-1.663-.358-.476-.239-.817-.554-1.022-.944a.506.506 0 0 0-.207-.241.572.572 0 0 0-.3-.085.555.555 0 0 0-.381.124.392.392 0 0 0-.14.306c0 .078.017.148.053.208.285.6.755 1.075 1.41 1.427z"/>
        <rect width="1.5" height="30" x="36" opacity=".2" rx=".75"/>
    </g>
</svg>
